<svg width="29" height="48" viewBox="0 0 29 48" fill="none" xmlns="http://www.w3.org/2000/svg">
  <path
    d="M1.39637 46.7237H2.16777C2.23086 46.7237 2.26895 46.6715 2.26895 46.6241V41.856C2.26895 41.805 2.2261 41.7516 2.16777 41.7516H1.33923V40.5157H4.24268C4.2903 40.5157 4.34387 40.5489 4.34387 40.632V46.6253C4.34387 46.681 4.39267 46.7249 4.44505 46.7249H5.22954V47.8909H1.39637V46.7237ZM2.16896 38.4911C2.16896 37.8885 2.66299 37.3963 3.28201 37.3963C3.90103 37.3963 4.39982 37.8885 4.39982 38.4911C4.39982 39.0936 3.9046 39.574 3.28201 39.574C2.65941 39.574 2.16896 39.096 2.16896 38.4911Z"
    fill="white"></path>
  <path
    d="M13.5649 46.7238C13.5137 46.7238 13.4637 46.6787 13.4637 46.6241V38.5931C13.4637 38.5457 13.4233 38.4923 13.3625 38.4923H10.446V39.7009H11.3055C11.3686 39.7009 11.4055 39.7519 11.4055 39.8005V41.3579C10.9269 40.7803 10.321 40.3995 9.29129 40.3995C7.85325 40.3995 6.1057 41.5133 6.1057 44.2935C6.1057 47.0737 7.70087 48 9.17819 48C10.2079 48 10.9269 47.6074 11.4067 47.0606V47.4532C11.4067 47.6525 11.571 47.8897 11.8436 47.8897H14.3268V46.7238H13.5649ZM9.86864 46.7665C9.02463 46.7665 8.19014 46.26 8.19014 44.2365C8.19014 42.3696 9.0651 41.8062 10.0413 41.8062C10.5317 41.8062 11.04 42.1063 11.4043 42.2735V46.0299C10.9972 46.3822 10.5174 46.7653 9.86864 46.7653V46.7665Z"
    fill="white"></path>
  <path
    d="M15.1827 45.7559C15.1827 44.2104 16.3957 43.5106 18.1004 43.5106C18.7194 43.5106 19.1444 43.5664 19.6099 43.6779V42.9057C19.6099 42.1609 19.1992 41.824 18.3254 41.8121C17.1695 41.792 16.8433 42.1075 16.6195 42.4704H15.6743V41.0329C15.6743 41.0056 15.6827 40.9617 15.7386 40.938C16.4219 40.6415 17.3409 40.4054 18.7349 40.4054C20.6515 40.4054 21.6681 41.0234 21.6681 42.71V46.6253C21.6681 46.6822 21.705 46.7261 21.7645 46.7261H22.4157V47.8921H20.042C19.792 47.8921 19.6087 47.6857 19.6087 47.4556V47.0653C19.0587 47.739 18.4516 47.9786 17.5516 47.9786C16.1672 47.9786 15.1815 47.2207 15.1815 45.7583L15.1827 45.7559ZM19.6099 46.1746V44.7489C19.2849 44.6908 18.9194 44.5912 18.5242 44.5912C17.6921 44.5912 17.1838 44.928 17.1838 45.6729C17.1838 46.4177 17.6207 46.7665 18.3123 46.7665C18.8337 46.7665 19.2575 46.4972 19.6099 46.1734V46.1746Z"
    fill="white"></path>
  <path
    d="M23.0693 40.5145H23.8038V38.4911H25.8596V40.5145H27.3536V41.7504H25.8596V46.6241C25.8596 46.6858 25.9037 46.7237 25.9608 46.7237H27.4108V47.8897H24.2407C23.9633 47.8897 23.8038 47.6489 23.8038 47.4532V41.7504H23.0693V40.5145Z"
    fill="white"></path>
  <path
    d="M9.94125 0.00115829C7.75325 0.00115829 5.97951 1.60594 5.91761 3.60688L5.91285 3.59858C5.91285 3.59858 5.95809 4.41342 5.04979 4.59727L5.0617 4.59964C3.35343 5.029 2.09396 6.46418 2.09396 8.17452C2.09396 8.5944 2.17372 8.99767 2.31419 9.37485L2.30943 9.37247C2.30943 9.37247 2.313 9.37722 2.32014 9.38908C2.35109 9.46855 2.37967 9.55039 2.41657 9.62748C2.49395 9.89554 2.52132 10.313 2.09158 10.587C2.06777 10.5989 2.04634 10.6131 2.02373 10.6262C1.99039 10.644 1.95825 10.6629 1.91897 10.6795L1.93206 10.6772C0.774969 11.3283 0.00119159 12.4978 0.00119159 13.8381C0.00119159 14.5652 0.233324 15.2436 0.624974 15.8153L0.617832 15.8106C0.617832 15.8106 1.28447 16.6622 0.852346 17.3454C0.795205 17.4118 0.739255 17.477 0.688066 17.547C0.253561 18.1389 0 18.8517 0 19.6215C0 20.7222 0.526169 21.7102 1.35471 22.3898V22.3946C1.35471 22.3946 1.92373 22.8619 1.67255 23.7574L1.67731 23.7515C1.49399 24.1773 1.38923 24.6399 1.38923 25.1262C1.38923 27.0761 3.02726 28.6714 5.10574 28.8208L5.02955 28.8457C5.02955 28.8457 5.76405 28.8872 5.96642 29.7341L5.97118 29.7128C6.29736 31.4575 7.9461 32.7871 9.93649 32.7871C12.0971 32.7871 13.8542 31.2215 13.9566 29.2561L13.9649 29.2585V18.5635C13.9649 18.5066 13.897 18.3939 13.7804 18.4081C13.1459 18.49 10.2627 18.949 10.1496 18.9656C10.0163 18.9869 9.9734 18.8529 9.9853 18.7972C9.99839 18.7402 13.9649 3.71126 13.9649 3.71126C13.9649 1.66287 12.1614 0.00234439 9.93649 0.00234439L9.94125 0.00115829Z"
    fill="white"></path>
  <path
    d="M28.1834 15.8106L28.1762 15.8154C28.5691 15.2437 28.8 14.5664 28.8 13.8381C28.8 12.499 28.025 11.3284 26.8691 10.6772L26.8822 10.6796C26.8453 10.663 26.8132 10.644 26.781 10.6274C26.756 10.6143 26.7334 10.6001 26.7096 10.5871C26.2787 10.3131 26.3072 9.89438 26.3846 9.62633C26.4203 9.54923 26.4489 9.46858 26.4799 9.38911C26.4882 9.37606 26.493 9.36894 26.4918 9.37132L26.487 9.37369C26.6275 8.99651 26.7072 8.59324 26.7072 8.17336C26.7072 6.46302 25.449 5.02666 23.7395 4.59848L23.7502 4.59611C22.8431 4.41226 22.8895 3.59742 22.8895 3.59742L22.8848 3.60572C22.8241 1.60478 21.0491 0 18.8611 0C16.6731 0 14.8315 1.66053 14.8315 3.70891V14.3968C14.8315 14.5118 14.9399 14.5581 15.0018 14.5498C15.0541 14.5427 17.9624 14.0789 18.6421 13.9911C18.7754 13.9745 18.8218 14.1145 18.804 14.1928C18.7873 14.2734 14.8303 29.2562 14.8303 29.2562L14.8411 29.2538C14.9422 31.2191 16.7005 32.7848 18.8611 32.7848C20.8503 32.7848 22.4979 31.4552 22.8264 29.7104L22.8312 29.7318C23.0324 28.8849 23.7669 28.8434 23.7669 28.8434L23.6919 28.8185C25.7692 28.669 27.4084 27.0737 27.4084 25.1238C27.4084 24.6387 27.3036 24.1749 27.1191 23.7491L27.1263 23.7551C26.8763 22.8596 27.4441 22.3922 27.4441 22.3922V22.3875C28.2726 21.7079 28.7988 20.7198 28.7988 19.6192C28.7988 18.7592 28.4786 17.9717 27.9465 17.3419C27.5155 16.6599 28.1822 15.8094 28.1822 15.8094L28.1834 15.8106Z"
    fill="white"></path>
</svg>